<?xml version="1.0" encoding="UTF-8" standalone="no"?>
<svg
   xmlns:dc="http://purl.org/dc/elements/1.1/"
   xmlns:cc="http://creativecommons.org/ns#"
   xmlns:rdf="http://www.w3.org/1999/02/22-rdf-syntax-ns#"
   xmlns:svg="http://www.w3.org/2000/svg"
   xmlns="http://www.w3.org/2000/svg"
   id="svg150"
   version="1.1"
   width="1597.2413"
   viewBox="0 0 199.65517 58"
   height="464">
  <metadata
     id="metadata156">
    <rdf:RDF>
      <cc:Work
         rdf:about="">
        <dc:format>image/svg+xml</dc:format>
        <dc:type
           rdf:resource="http://purl.org/dc/dcmitype/StillImage" />
        <dc:title></dc:title>
      </cc:Work>
    </rdf:RDF>
  </metadata>
  <defs
     id="defs154">
    <rect
       id="rect178"
       height="20.561522"
       width="58.956951"
       y="2.2545269"
       x="119.34865" />
    <rect
       id="rect170"
       height="13.308283"
       width="7.1630955"
       y="26.483307"
       x="79.946426" />
  </defs>
  <path
     id="path102"
     fill="#ad6327"
     d="M 58,54 0,54 v -8 l 58,0 z" />
  <path
     id="path104"
     fill="#32b1cc"
     d="M 14,46 H 2 L 2,0 h 12 z" />
  <path
     id="path106"
     fill="#217d89"
     d="M 14,11 2,11 V 4 l 12,0 z" />
  <path
     id="path108"
     fill="#7fcac9"
     d="M 26,46 H 14 l 0,-34 h 12 z" />
  <path
     id="path110"
     d="m 32,31 a 5,5 0 1 1 5,-5 5.006,5.006 0 0 1 -5,5 z m 0,-8 a 3,3 0 1 0 3,3 3,3 0 0 0 -3,-3 z" />
  <path
     id="path112"
     fill="#66afac"
     d="M 26,42 H 14 l 0,-4 h 12 z" />
  <path
     id="path114"
     fill="#66afac"
     d="M 26,20 H 14 v -4 h 12 z" />
  <path
     id="path116"
     fill="#32b1cc"
     d="M 38,46 26,46 26,6 38,6 Z" />
  <path
     id="path118"
     fill="#217d89"
     d="m 5,37 h 6 v 2 H 5 Z" />
  <path
     id="path120"
     fill="#217d89"
     d="m 5,41 h 6 v 2 H 5 Z" />
  <path
     id="path122"
     fill="#217d89"
     d="M 38,14 26,14 V 10 H 38 Z" />
  <path
     id="path124"
     fill="#5fe3ed"
     d="M 38,18 H 26 v -4 h 12 z" />
  <path
     id="path126"
     fill="#7fcac9"
     d="M 38,11 48,46 57,43 47,8 Z" />
  <path
     id="path128"
     fill="#66afac"
     d="m 47,8 2,7 -9,3 -2,-7 z" />
  <g
     transform="translate(-3,-3)"
     id="g140"
     fill="#f4f4e6">
    <path
       id="path130"
       d="M 10,24 H 8 v -6 a 1,1 0 0 1 1,-1 h 3 v 2 h -2 z" />
    <path
       id="path132"
       d="m 8,26 h 2 v 2 H 8 Z" />
    <path
       id="path134"
       d="m 37,46 h -3 v -2 h 2 v -3 h 2 v 4 a 1,1 0 0 1 -1,1 z" />
    <path
       id="path136"
       d="m 24,27 h 2 v 9 h -2 z" />
    <path
       id="path138"
       d="m 20,27 h 2 v 9 h -2 z" />
  </g>
  <path
     id="path142"
     fill="#d3843d"
     d="M 56,58 2,58 v -4 l 54,0 z" />
  <path
     id="path144"
     fill="#66342e"
     d="m 41,49 h 17 v 2 H 41 Z" />
  <path
     id="path146"
     fill="#66342e"
     d="m 35,49 h 4 v 2 h -4 z" />
  <path
     id="path148"
     fill="#66342e"
     d="m 3,49 h 16 v 2 H 3 Z" />
  <g
     style="font-style:normal;font-variant:normal;font-weight:normal;font-stretch:normal;font-size:71.4466px;line-height:1.25;font-family:'HeavyData Nerd Font';-inkscape-font-specification:'HeavyData Nerd Font Normal';font-variant-ligatures:normal;font-variant-caps:normal;font-variant-numeric:normal;font-variant-east-asian:normal;letter-spacing:0px;word-spacing:0px;fill:#000000;fill-opacity:1;stroke:none;stroke-width:1.78617"
     id="text166"
     transform="scale(0.92949769,1.0758499)"
     aria-label="PDAS">
    <path
       id="path341"
       style="font-style:normal;font-variant:normal;font-weight:normal;font-stretch:normal;font-size:71.4466px;font-family:'HeavyData Nerd Font';-inkscape-font-specification:'HeavyData Nerd Font Normal';font-variant-ligatures:normal;font-variant-caps:normal;font-variant-numeric:normal;font-variant-east-asian:normal;stroke-width:1.78617"
       d="m 85.790426,12.128345 -10.535583,0.03489 V 22.838358 H 85.720654 Z M 99.57041,26.361847 q 0,3.593262 -3.488604,3.593262 L 82.23205,29.850451 82.336708,43.630435 q 0,3.628148 -3.488603,3.628148 h -7.081866 q -3.488603,0 -3.488603,-3.453718 V 8.7792853 q 0,-3.4886036 3.488603,-3.4886036 L 96.22135,5.2557956 q 3.418832,0 3.418832,3.5583757 z" />
    <path
       id="path343"
       style="font-style:normal;font-variant:normal;font-weight:normal;font-stretch:normal;font-size:71.4466px;font-family:'HeavyData Nerd Font';-inkscape-font-specification:'HeavyData Nerd Font Normal';font-variant-ligatures:normal;font-variant-caps:normal;font-variant-numeric:normal;font-variant-east-asian:normal;stroke-width:1.78617"
       d="m 118.93216,12.267889 -5.26779,0.03489 0.0698,27.943715 h 5.47711 l 6.97721,-13.779984 z m 2.58157,34.990694 h -11.37285 q -3.4886,0 -3.4886,-3.453718 V 8.7792853 q 0,-3.4886036 3.4886,-3.4886036 l 13.88464,-0.034886 v 0.069772 h 3.17463 q 1.67453,0 2.756,2.0233901 l 8.05867,15.4196282 q 0.90704,1.779188 0.90704,3.523489 0,1.814074 -0.94192,3.593262 l -7.81447,15.454514 q -1.08147,1.953618 -2.79089,1.953618 h -5.40733 q -0.20932,0 -0.45352,-0.03489 z" />
    <path
       id="path345"
       style="font-style:normal;font-variant:normal;font-weight:normal;font-stretch:normal;font-size:71.4466px;font-family:'HeavyData Nerd Font';-inkscape-font-specification:'HeavyData Nerd Font Normal';font-variant-ligatures:normal;font-variant-caps:normal;font-variant-numeric:normal;font-variant-east-asian:normal;stroke-width:1.78617"
       d="m 144.15477,47.119039 q -1.70942,0 -1.70942,-1.744302 0,-0.593062 0.20932,-0.976809 l -0.0349,-0.03489 7.15164,-29.897333 1.18612,-4.988703 0.34886,-1.4303275 q 0.66284,-2.7211108 3.10486,-2.7211108 0.27909,0 0.59306,0.034886 v -0.034886 h 11.44262 v 0.034886 q 0.31398,-0.034886 0.59307,-0.034886 2.44202,0 3.10485,2.7211108 l 0.34886,1.4303275 8.58197,34.85115 q 0.10466,0.418632 0.10466,1.151239 0,1.744302 -1.7443,1.744302 h -9.14015 q -0.31397,0.03489 -0.59306,0.03489 -2.44202,0 -3.10486,-2.721111 l -7.36095,-30.071763 h -0.0349 L 150.15517,44.4677 q -0.66284,2.721111 -3.10486,2.721111 z m 16.74529,-3.34906 q -0.27908,3.453718 -3.4886,3.488604 -3.4886,0 -3.4886,-3.418831 l -0.0349,-7.081866 q 0,-3.488603 3.48861,-3.488603 3.20951,0.03489 3.4886,3.523489 z" />
    <path
       id="path347"
       style="font-style:normal;font-variant:normal;font-weight:normal;font-stretch:normal;font-size:71.4466px;font-family:'HeavyData Nerd Font';-inkscape-font-specification:'HeavyData Nerd Font Normal';font-variant-ligatures:normal;font-variant-caps:normal;font-variant-numeric:normal;font-variant-east-asian:normal;stroke-width:1.78617"
       d="m 211.31039,19.279982 q 3.4886,0 3.4886,3.418832 v 21.21071 q 0,3.488603 -3.4886,3.488603 h -20.72231 q -3.62814,-0.03489 -3.55837,-3.488603 0.0349,-3.488604 3.4886,-3.488604 h 17.30348 v -7.186523 l -21.0014,0.03489 q -3.31417,0 -3.41883,-3.418832 l -0.0349,-21.1060518 q 0,-3.4886036 3.48861,-3.4886036 l 24.21091,0.034886 q 3.38394,0.2790883 3.52349,3.4886036 -0.0349,3.4886037 -3.52349,3.4886037 l -20.54788,0.03489 0.10466,7.012093 z" />
  </g>
  <text
     transform="translate(-3,-3)"
     style="font-style:normal;font-weight:normal;font-size:5px;line-height:1.25;font-family:sans-serif;letter-spacing:0px;word-spacing:0px;white-space:pre;shape-inside:url(#rect170);fill:#000000;fill-opacity:1;stroke:none;"
     id="text168"
     xml:space="preserve" />
  <text
     transform="translate(-3,-3)"
     style="font-style:normal;font-weight:normal;font-size:5px;line-height:1.25;font-family:sans-serif;letter-spacing:0px;word-spacing:0px;white-space:pre;shape-inside:url(#rect178);fill:#000000;fill-opacity:1;stroke:none;"
     id="text176"
     xml:space="preserve" />
</svg>
